<svg xmlns="http://www.w3.org/2000/svg" viewBox="0 0 1200 800" width="1200" height="800" role="img" aria-label="Advanced Tech cover">
<defs>
<linearGradient id="g" x1="0" y1="0" x2="1" y2="1">
<stop offset="0" stop-color="#6D28D9"/><stop offset="1" stop-color="#A855F7"/>
</linearGradient>
<radialGradient id="glow" cx="30%" cy="24%" r="80%">
<stop offset="0" stop-color="#ffffff" stop-opacity=".28"/><stop offset="55%" stop-color="#ffffff" stop-opacity="0"/>
</radialGradient>
</defs>
<rect width="1200" height="800" fill="url(#g)"/>
<line x1="420.6" y1="341.1" x2="620.3" y2="312.2" stroke="#fff" stroke-opacity=".16" stroke-width="1.4"/><line x1="420.6" y1="341.1" x2="535.0" y2="447.3" stroke="#fff" stroke-opacity=".16" stroke-width="1.4"/><line x1="420.6" y1="341.1" x2="543.0" y2="278.8" stroke="#fff" stroke-opacity=".16" stroke-width="1.4"/><line x1="420.6" y1="341.1" x2="515.0" y2="234.0" stroke="#fff" stroke-opacity=".16" stroke-width="1.4"/><line x1="420.6" y1="341.1" x2="622.5" y2="271.9" stroke="#fff" stroke-opacity=".16" stroke-width="1.4"/><line x1="420.6" y1="341.1" x2="395.9" y2="587.4" stroke="#fff" stroke-opacity=".16" stroke-width="1.4"/><line x1="420.6" y1="341.1" x2="443.6" y2="191.4" stroke="#fff" stroke-opacity=".16" stroke-width="1.4"/><line x1="420.6" y1="341.1" x2="440.5" y2="510.3" stroke="#fff" stroke-opacity=".16" stroke-width="1.4"/><line x1="620.3" y1="312.2" x2="535.0" y2="447.3" stroke="#fff" stroke-opacity=".16" stroke-width="1.4"/><line x1="620.3" y1="312.2" x2="543.0" y2="278.8" stroke="#fff" stroke-opacity=".16" stroke-width="1.4"/><line x1="620.3" y1="312.2" x2="515.0" y2="234.0" stroke="#fff" stroke-opacity=".16" stroke-width="1.4"/><line x1="620.3" y1="312.2" x2="793.8" y2="153.6" stroke="#fff" stroke-opacity=".16" stroke-width="1.4"/><line x1="620.3" y1="312.2" x2="736.6" y2="508.9" stroke="#fff" stroke-opacity=".16" stroke-width="1.4"/><line x1="620.3" y1="312.2" x2="622.5" y2="271.9" stroke="#fff" stroke-opacity=".16" stroke-width="1.4"/><line x1="620.3" y1="312.2" x2="705.9" y2="554.1" stroke="#fff" stroke-opacity=".16" stroke-width="1.4"/><line x1="620.3" y1="312.2" x2="443.6" y2="191.4" stroke="#fff" stroke-opacity=".16" stroke-width="1.4"/><line x1="535.0" y1="447.3" x2="543.0" y2="278.8" stroke="#fff" stroke-opacity=".16" stroke-width="1.4"/><line x1="535.0" y1="447.3" x2="515.0" y2="234.0" stroke="#fff" stroke-opacity=".16" stroke-width="1.4"/><line x1="535.0" y1="447.3" x2="736.6" y2="508.9" stroke="#fff" stroke-opacity=".16" stroke-width="1.4"/><line x1="535.0" y1="447.3" x2="622.5" y2="271.9" stroke="#fff" stroke-opacity=".16" stroke-width="1.4"/><line x1="535.0" y1="447.3" x2="705.9" y2="554.1" stroke="#fff" stroke-opacity=".16" stroke-width="1.4"/><line x1="535.0" y1="447.3" x2="395.9" y2="587.4" stroke="#fff" stroke-opacity=".16" stroke-width="1.4"/><line x1="535.0" y1="447.3" x2="440.5" y2="510.3" stroke="#fff" stroke-opacity=".16" stroke-width="1.4"/><line x1="543.0" y1="278.8" x2="515.0" y2="234.0" stroke="#fff" stroke-opacity=".16" stroke-width="1.4"/><line x1="543.0" y1="278.8" x2="622.5" y2="271.9" stroke="#fff" stroke-opacity=".16" stroke-width="1.4"/><line x1="543.0" y1="278.8" x2="443.6" y2="191.4" stroke="#fff" stroke-opacity=".16" stroke-width="1.4"/><line x1="543.0" y1="278.8" x2="440.5" y2="510.3" stroke="#fff" stroke-opacity=".16" stroke-width="1.4"/><line x1="515.0" y1="234.0" x2="622.5" y2="271.9" stroke="#fff" stroke-opacity=".16" stroke-width="1.4"/><line x1="515.0" y1="234.0" x2="443.6" y2="191.4" stroke="#fff" stroke-opacity=".16" stroke-width="1.4"/><line x1="975.7" y1="359.7" x2="908.4" y2="577.9" stroke="#fff" stroke-opacity=".16" stroke-width="1.4"/><line x1="975.7" y1="359.7" x2="1063.8" y2="501.0" stroke="#fff" stroke-opacity=".16" stroke-width="1.4"/><line x1="793.8" y1="153.6" x2="622.5" y2="271.9" stroke="#fff" stroke-opacity=".16" stroke-width="1.4"/><line x1="736.6" y1="508.9" x2="908.4" y2="577.9" stroke="#fff" stroke-opacity=".16" stroke-width="1.4"/><line x1="736.6" y1="508.9" x2="705.9" y2="554.1" stroke="#fff" stroke-opacity=".16" stroke-width="1.4"/><line x1="908.4" y1="577.9" x2="705.9" y2="554.1" stroke="#fff" stroke-opacity=".16" stroke-width="1.4"/><line x1="908.4" y1="577.9" x2="1063.8" y2="501.0" stroke="#fff" stroke-opacity=".16" stroke-width="1.4"/><line x1="622.5" y1="271.9" x2="443.6" y2="191.4" stroke="#fff" stroke-opacity=".16" stroke-width="1.4"/><line x1="395.9" y1="587.4" x2="440.5" y2="510.3" stroke="#fff" stroke-opacity=".16" stroke-width="1.4"/><circle cx="420.6" cy="341.1" r="3" fill="#fff" fill-opacity="0.4803266315953806"/><circle cx="620.3" cy="312.2" r="5.2" fill="#fff" fill-opacity="0.5400611981982365"/><circle cx="535.0" cy="447.3" r="7.4" fill="#fff" fill-opacity="0.7613301599863916"/><circle cx="543.0" cy="278.8" r="9.600000000000001" fill="#fff" fill-opacity="0.5609343081247061"/><circle cx="515.0" cy="234.0" r="3" fill="#fff" fill-opacity="0.6538570814533159"/><circle cx="130.4" cy="365.9" r="5.2" fill="#fff" fill-opacity="0.5279193833936006"/><circle cx="975.7" cy="359.7" r="7.4" fill="#fff" fill-opacity="0.3557746856473386"/><circle cx="793.8" cy="153.6" r="9.600000000000001" fill="#fff" fill-opacity="0.8252888577058911"/><circle cx="736.6" cy="508.9" r="3" fill="#fff" fill-opacity="0.5713905210373923"/><circle cx="908.4" cy="577.9" r="5.2" fill="#fff" fill-opacity="0.5324305170448497"/><circle cx="622.5" cy="271.9" r="7.4" fill="#fff" fill-opacity="0.5379606799921021"/><circle cx="705.9" cy="554.1" r="9.600000000000001" fill="#fff" fill-opacity="0.8272648462094366"/><circle cx="395.9" cy="587.4" r="3" fill="#fff" fill-opacity="0.664673489308916"/><circle cx="443.6" cy="191.4" r="5.2" fill="#fff" fill-opacity="0.47426753109320996"/><circle cx="440.5" cy="510.3" r="7.4" fill="#fff" fill-opacity="0.5418018684955314"/><circle cx="1063.8" cy="501.0" r="9.600000000000001" fill="#fff" fill-opacity="0.7005392147926613"/>
<rect width="1200" height="800" fill="url(#glow)"/>
</svg>